ply
format ascii 1.0
comment zipper output
element vertex 428
property float x
property float y
property float z
element face 839
property list uchar int vertex_indices
end_header
-2.351275 -0.598987 0.920128
-2.471596 0.122034 1.040972
-2.208617 -0.073601 0.365387
-2.355033 -0.503121 1.656374
-2.442098 0.184359 1.610224
-2.292304 0.516918 0.787152
-2.268468 -0.193755 2.339571
-1.933268 0.381801 -0.176033
-2.268658 0.882067 1.355453
-1.985626 -0.078549 -0.362485
-1.710849 -1.057862 0.042819
-1.893780 -1.325717 1.075941
-1.950586 -0.515729 0.044484
-2.086726 -0.992920 1.737491
-2.195614 0.596608 2.096931
-2.003919 -0.338316 -1.079271
-1.828362 1.403743 0.952242
-1.879507 0.906093 0.144632
-2.094624 1.025986 2.046025
-1.817182 -0.170181 2.843881
-2.020619 0.564256 2.627409
-1.735350 0.859706 -0.544512
-1.698954 -1.360210 2.076949
-1.986078 -0.736483 2.510846
-1.272907 1.251498 -0.325922
-1.970307 0.633480 -1.344510
-1.393276 -1.630444 0.920366
-1.060717 -1.737253 1.801482
-1.836688 -0.725778 -0.948436
-1.390897 -1.182988 -0.993872
-0.755752 -1.625211 0.398691
-0.804755 -1.745341 1.148495
-1.486288 0.544037 3.138855
-2.008201 -0.912278 -1.587150
-1.247216 1.835737 1.292652
-1.026699 1.655898 0.354920
-1.496279 1.222714 2.751107
-1.626638 1.586674 1.958960
-0.995299 -1.339752 -0.270234
-1.149447 -0.617066 3.291100
-0.827830 1.760566 2.517983
-1.487001 1.083553 -1.135649
-0.439368 -1.728214 0.784773
-0.498363 -1.740584 1.352122
-1.354025 -1.206063 2.653576
-0.657031 -1.682065 0.608503
-0.856614 -1.890450 0.612071
-0.609930 -1.901392 0.742668
-1.560745 1.104725 -1.667316
-2.156523 0.796429 -2.285334
-0.516680 -1.892828 0.773593
-0.550459 -2.042694 0.730298
-0.907520 -1.763420 0.045673
-0.843530 -1.969426 0.393695
-0.763602 -1.529820 0.229081
-0.691523 -1.660893 0.416770
-1.030743 -1.461072 2.427588
-2.142676 0.173892 -1.510314
-2.365405 0.291644 -2.367641
-2.457323 -0.229004 -2.429491
-0.687955 -2.019382 0.497649
-0.037823 -1.907815 0.778588
0.025216 -1.665175 0.908710
-0.666546 -1.861190 0.265239
-0.605410 -1.833120 0.620159
-0.703418 -1.940881 -0.006423
-0.191495 2.141415 0.846861
-0.746474 2.071002 0.688907
-0.630150 1.831693 0.643709
-0.621824 1.652805 0.091347
-0.741717 1.752478 0.387034
-0.652273 1.334519 3.000884
-0.758130 0.419624 3.412420
-0.246208 -2.059822 0.728871
-0.305679 -1.949920 0.589948
-0.777637 1.869516 -0.112518
-0.609216 1.682541 0.024264
-0.809989 0.809037 3.291100
0.078025 -1.674215 0.474575
-0.146535 -1.720364 0.685339
-0.362057 -1.985602 0.250252
-0.477192 -2.040315 0.423906
-0.491940 -2.029135 0.134879
-0.278560 -1.409214 -0.276681
-1.375197 -1.320246 -1.736302
-0.557120 -1.382095 -0.960806
-0.419624 -1.251022 2.986611
-2.060488 -1.272194 -2.635021
-1.693721 -1.268150 -2.256550
-1.872371 -1.056673 -1.862379
-0.305203 1.841922 0.770738
-0.075171 1.837164 0.696043
-0.010705 -1.828838 0.394884
-0.239309 -1.693483 0.586380
-0.454117 -1.835737 -0.286410
-0.617066 -1.627114 -0.001903
-0.701752 -1.732734 -0.207861
0.116562 1.824556 0.436038
-0.733629 2.157115 0.500742
-0.463394 1.985840 0.596133
-0.701277 1.996545 0.363246
-0.451500 2.147362 0.305203
-0.625630 2.032703 -0.170395
-0.906331 2.061725 0.200297
-2.569841 0.609930 -2.836745
-0.134166 -1.648048 0.338031
-0.376330 -1.929938 0.016414
-0.193636 -1.455601 -0.352256
-2.848401 -0.576151 -3.229250
-0.373475 1.954440 0.567111
-0.672255 1.477724 -0.434658
-0.534997 1.475583 -0.383347
-0.846623 1.408500 -1.167764
0.236931 -1.668506 1.925894
0.122034 -1.569784 2.563180
-0.439606 -1.788636 1.833358
-0.371572 -1.325717 -0.658458
-0.373951 -0.419244 3.433829
-0.137496 2.040315 0.636335
-0.280701 1.714655 0.442937
-0.107523 1.693721 0.495033
-0.626582 2.086702 0.061374
-0.526671 1.944687 -0.134594
-0.478619 1.692769 -0.219042
-0.307106 1.591194 -0.364840
-0.009753 1.333330 -0.657982
-0.005709 -1.673501 0.142254
-0.317811 -1.553608 0.180315
-0.356585 -1.797200 -0.408943
0.225037 1.730117 2.132614
1.152777 1.806001 0.604459
0.215521 1.785781 0.766694
-0.337555 2.039364 0.238120
-0.166518 1.725121 0.317573
-0.422003 2.062914 0.124412
-0.384893 1.775790 -0.524625
0.017603 1.617599 -0.645612
0.822121 -0.118560 3.345813
-0.082307 0.453879 3.402904
-0.054237 -1.747245 0.054475
-0.138210 -1.595476 0.024264
-0.277846 -1.808142 -0.187689
0.033541 -1.507697 -0.570204
0.912516 1.692532 1.606894
0.850667 1.879507 0.243591
0.132738 1.762945 0.322330
-0.030449 1.891639 0.236931
-0.489324 1.815041 0.103479
-0.402497 2.023901 -0.164067
-0.341361 1.940643 -0.164924
-0.401783 1.927797 -0.426071
0.900622 -1.631634 0.387034
0.089206 -1.656611 -0.119155
-0.243353 -1.548613 -0.159833
-0.029735 1.808856 0.164139
-0.194588 2.005347 -0.017128
-0.132262 1.509600 0.095153
-0.283318 1.648999 0.085400
-0.625154 1.908529 1.740108
-0.319952 0.931784 3.222114
0.161760 -1.537432 -0.019268
0.039488 -1.782689 -0.144728
-1.345699 -1.623070 -2.803441
0.653224 -0.890631 3.153128
-0.208861 1.449178 -0.142848
-0.166042 1.831931 -0.219018
-0.125364 1.806001 -0.576151
-0.053286 1.487477 -0.490965
0.983881 -1.508649 1.087597
0.126791 -1.639960 -0.337888
-0.249776 -1.734875 -0.416722
0.057567 -1.792442 -0.577578
-0.113946 -1.620929 -0.554979
-0.069224 1.681351 -0.223276
0.040202 1.362827 -1.072849
-0.267142 1.359497 -0.891107
-0.973652 1.283374 -1.820036
-1.393514 1.246265 -2.098834
0.037585 -1.771984 -0.379779
0.184359 -1.519353 -0.418149
0.079453 1.757473 -0.162378
0.125840 1.577872 -0.291929
0.030925 1.736302 -0.314837
-0.068034 1.907577 -0.222325
0.073981 1.819799 -0.562591
0.117514 1.525063 -0.542371
-0.422717 1.390897 -1.606418
-1.006479 1.458456 -2.555092
-0.101814 -1.194644 -1.149922
-2.136658 1.295506 -3.000884
-1.653519 -1.679924 -2.786790
-2.368593 -1.580489 -3.243523
-2.889317 0.269520 -3.295857
-2.789644 -0.504786 -3.381495
0.617542 1.193455 2.948549
-2.676412 1.118522 -3.257796
0.569966 -1.378051 -1.469636
-0.745285 -1.507697 -2.805820
-1.767702 -2.118579 -3.217356
0.491465 1.583582 -0.589948
1.062382 1.520067 2.553665
0.529526 1.547661 -1.279330
0.006423 1.192979 -1.511503
-0.388699 1.330951 -2.111918
0.145822 1.455839 2.722561
-2.640968 0.941538 -3.414798
1.409690 -1.402791 0.407016
1.302643 -1.442517 0.907758
-2.547004 -1.233419 -3.324403
1.457266 1.540287 1.118046
1.507221 1.526728 0.892772
1.654708 1.577159 1.654233
-1.589291 1.443231 -2.660950
-1.108531 1.931365 -3.074627
-1.840256 2.051734 -3.253039
0.553314 -1.484147 -0.801901
1.557177 1.502940 0.471720
-2.123217 1.810759 -3.371980
1.961576 -1.236749 1.037642
1.502464 -1.221763 0.632291
1.673739 -1.202732 1.229375
1.121852 -1.549802 1.972043
0.767408 -1.594762 -0.178435
1.202732 -1.418491 -0.364864
0.348735 -1.145878 -1.355928
0.401069 -0.954621 -1.744866
-1.712989 -2.204692 -3.433829
1.973470 1.325479 0.961758
1.619026 1.341893 0.650608
1.038594 1.553608 -0.418292
-0.093250 1.217005 -1.661131
0.715074 0.794764 3.205462
1.540525 0.552600 3.008020
1.818847 -1.227948 1.673263
1.164671 -1.217719 2.751107
1.093306 -1.248643 -0.949626
-0.014035 -1.198450 -1.759376
-0.399880 -1.361162 -1.770795
-2.094457 1.812900 -3.203083
1.533388 -1.105201 2.477543
0.138210 -1.054056 -2.224912
1.531010 -0.444316 2.965201
1.864045 1.191552 0.711268
2.035320 1.164671 1.306211
0.774544 1.409928 -1.607132
-0.586617 1.504605 -2.858154
-0.001427 -1.174424 -2.910488
1.768892 1.138742 0.686052
2.099548 -0.811892 1.340942
2.242277 0.194825 2.263449
1.542904 1.490808 -0.073077
1.500085 1.173948 -0.961520
-0.004520 1.064523 -2.418548
-1.493186 2.204692 -3.402904
1.695148 -1.046682 0.710078
1.961576 -0.964850 0.744095
1.871181 -0.955811 0.856138
1.914000 -0.844957 0.713884
1.885454 -0.905380 0.726492
1.576207 -1.067853 0.639189
1.621405 -1.022893 0.526909
1.707042 -1.118522 0.358251
1.554798 -1.352598 -0.003330
2.073381 1.131368 0.766694
1.966334 1.102346 0.853521
2.130473 1.156345 1.106152
2.016289 1.073800 0.901573
1.861666 1.305973 0.059233
0.569966 1.152539 -1.765086
1.982986 -0.791196 0.903714
2.092412 -0.596133 0.839010
1.899727 -0.947723 0.561164
-1.069518 -2.178525 -3.186432
2.197080 0.870887 0.840200
1.973470 1.101394 0.742430
1.849772 1.141359 0.402021
1.971092 1.111148 0.504548
1.121852 1.339039 -1.360686
0.567587 0.810465 -2.044835
-1.254828 2.171388 -3.141234
1.980607 -0.654652 0.927503
2.189943 -0.688907 0.997440
1.949682 -0.788817 0.773355
1.885454 -0.797619 0.391316
2.071002 0.808324 0.928692
2.104306 0.702466 0.838297
2.056729 0.836632 0.800236
1.973470 0.996726 0.636335
-0.086589 1.195358 -2.910488
1.971092 -0.657982 0.625868
2.002016 -0.616828 0.815460
2.025805 -0.946057 -0.164472
1.535767 -0.977934 -0.932736
1.207490 -1.121614 -1.629255
-0.753373 -2.021998 -3.357707
2.092412 -0.522865 2.294373
2.208974 0.975317 1.043827
1.978228 0.717928 0.777637
2.404037 0.703180 1.183940
2.023426 1.094258 2.027708
2.223247 -0.440510 0.993396
1.828362 -0.346927 0.679391
1.933030 -0.465726 0.614450
2.035320 -0.624441 0.677488
1.997259 -0.817363 2.031276
1.052866 -0.973652 -1.917092
0.370145 -0.578529 -2.269158
2.211353 0.795240 0.945582
2.002016 0.768359 0.653224
2.042456 0.761937 0.564732
1.942546 0.882543 0.402735
1.835499 1.202256 -0.399071
-0.836156 2.018906 -3.329161
2.380249 -0.406588 1.170380
2.268444 -0.766218 1.163006
1.902106 -0.123175 0.772879
1.861666 -0.265239 0.819980
1.897348 -0.294308 0.708889
1.909242 -0.492654 0.427950
-0.345167 -1.682065 -3.250660
2.228004 0.567587 1.550278
1.930652 0.454355 0.623013
1.906863 0.653224 0.484328
0.334462 0.664643 -2.860533
2.130473 -0.289788 0.916322
1.878318 -0.253416 0.525482
2.237520 0.567587 1.003387
1.956819 0.576388 0.870649
1.959198 0.569966 0.734580
2.151882 0.648943 -0.102836
1.654708 1.017184 2.579832
1.811711 0.875644 -0.747902
1.409690 1.069042 -1.777218
-0.488134 1.905436 -3.236387
0.363008 0.923934 -3.319646
-0.356110 1.634488 -3.429071
1.990122 -0.088801 0.612784
1.911621 -0.378732 0.343978
2.406416 0.372523 1.104487
2.220868 0.251204 0.753135
1.911621 0.446743 0.828068
2.099548 0.289503 0.836156
1.956819 0.336365 0.711743
1.849772 0.514063 0.715074
1.221763 0.934401 -1.995593
0.919652 0.679154 -2.054350
0.572344 0.568063 -2.279149
2.097169 -0.467676 -0.248682
1.783165 -0.710316 -0.691999
1.925894 0.530953 0.511685
2.173291 0.323758 0.436514
2.230383 0.357299 0.097294
1.875939 0.820693 -1.112099
1.688012 0.913468 -1.580251
2.256550 -0.019173 0.772166
2.197080 -0.430234 1.626400
2.187564 -0.062563 0.633480
2.180428 -0.194897 0.072792
2.304127 -0.030758 0.698660
1.997259 -0.506689 -1.105676
1.925894 -0.417103 -1.060003
1.928273 -0.617542 -1.073086
0.103955 -1.180133 -3.355328
0.436752 -0.665356 -3.345813
2.860771 0.107523 0.049479
2.377870 0.200535 0.402735
2.596722 -0.067701 0.248111
2.194701 -0.289360 -0.093464
2.090033 -0.529288 -1.060717
2.035320 0.819742 -1.037880
0.948198 -0.510971 -2.067434
0.879212 -0.143062 -2.303651
0.814984 -0.053238 -2.355509
0.531905 0.066131 -3.167401
1.776028 0.511209 -2.200172
2.473023 -0.126315 -0.719594
2.354082 -0.258031 -0.977934
1.783165 -0.510495 -2.221582
2.018668 0.567587 -1.013140
0.712695 0.308057 -2.244180
2.201837 -0.319381 -0.415794
2.247035 -0.205504 -1.027889
2.087654 -0.410823 -1.766513
2.113821 -0.227263 -1.436570
1.709421 -0.746950 -1.513168
2.420689 0.663453 -0.461658
2.194701 0.507165 -0.358988
2.237520 0.446981 -1.051439
2.399280 -0.388343 -0.374712
2.306505 -0.135688 -0.453713
2.411174 -0.305060 -0.470008
2.216110 -0.065037 -0.173678
2.277960 -0.371738 -1.143737
2.377870 0.513588 -1.162530
2.197080 0.481474 -2.078376
1.987743 0.484090 -1.570736
1.252687 0.239072 -2.173054
2.608616 -0.199036 -0.343978
2.494432 -0.020815 -0.938921
2.442098 -0.069818 -1.052153
2.889317 0.349925 -0.225607
2.296990 0.333749 -0.492559
2.473023 0.300207 -0.696995
2.235141 0.148201 -0.315670
0.441509 0.354444 -3.352949
2.610995 -0.099839 -0.416865
2.316021 -0.080618 -1.026224
2.432583 -0.049337 -1.272194
2.663329 0.411774 -0.414034
2.580070 0.177698 -0.402568
2.553903 0.002902 -0.472791
2.358840 0.209098 -0.207243
2.589585 0.123699 -0.970797
2.458750 0.378233 -0.938921
2.458750 0.310674 -1.109958
2.446856 0.161760 -1.279330
2.216110 0.302586 -1.415875
2.653813 0.136069 -0.467320
2.337430 0.135831 -1.058576
1.854529 0.201962 -2.257264
2.882180 -0.054094 -0.402164
2.292233 0.294260 -0.995775
2.230383 0.091823 -1.309066
2.282717 -0.127981 -2.086940
-0.322568 -1.585485 -0.515729
1.937788 -0.444507 0.905142
2.803679 -0.186190 -0.180101
0.479570 -0.013987 -3.419556
3 0 1 2 
3 1 3 4 
3 1 4 5 
3 3 6 4 
3 2 1 7 
3 8 5 4 
3 1 5 7 
3 7 9 2 
3 0 10 11 
3 0 2 12 
3 0 13 3 
3 4 14 8 
3 0 11 13 
3 3 13 6 
3 4 6 14 
3 12 9 15 
3 8 16 17 
3 8 14 18 
3 6 19 20 
3 7 17 21 
3 13 11 22 
3 6 23 19 
3 16 24 17 
3 25 9 7 
3 11 26 27 
3 11 27 22 
3 10 28 29 
3 14 20 18 
3 26 30 31 
3 11 10 26 
3 13 22 23 
3 20 19 32 
3 33 28 15 
3 34 35 16 
3 18 36 37 
3 26 31 27 
3 30 26 38 
3 10 29 38 
3 19 23 39 
3 40 37 36 
3 41 25 21 
3 31 42 43 
3 22 44 23 
3 21 24 41 
3 31 45 42 
3 46 47 45 
3 36 20 32 
3 25 48 49 
3 45 47 42 
3 50 42 47 
3 47 46 51 
3 45 52 46 
3 53 46 52 
3 30 54 55 
3 30 55 45 
3 56 22 27 
3 22 56 44 
3 15 57 33 
3 34 37 40 
3 25 49 57 
3 57 58 59 
3 60 51 53 
3 51 46 53 
3 45 55 52 
3 29 28 33 
3 59 33 57 
3 42 50 61 
3 43 42 62 
3 60 63 64 
3 60 53 65 
3 60 65 63 
3 66 67 68 
3 69 35 70 
3 40 36 71 
3 39 72 32 
3 50 73 61 
3 51 60 73 
3 73 64 74 
3 68 67 70 
3 70 75 76 
3 70 76 69 
3 32 72 77 
3 78 79 61 
3 73 60 64 
3 80 74 81 
3 63 82 81 
3 52 65 53 
3 54 38 83 
3 84 85 29 
3 56 86 44 
3 29 33 84 
3 87 88 89 
3 33 59 89 
3 90 91 66 
3 61 92 78 
3 61 73 92 
3 93 92 73 
3 73 74 93 
3 63 65 94 
3 63 94 82 
3 52 95 96 
3 91 97 66 
3 98 99 100 
3 101 100 99 
3 102 98 100 
3 70 67 103 
3 70 103 75 
3 59 58 104 
3 78 62 79 
3 92 93 105 
3 74 80 93 
3 105 93 80 
3 106 82 94 
3 107 95 83 
3 39 44 86 
3 59 108 89 
3 99 109 101 
3 75 103 102 
3 110 69 111 
3 41 24 112 
3 36 77 71 
3 49 104 58 
3 113 114 115 
3 114 56 115 
3 116 107 83 
3 38 85 116 
3 38 116 83 
3 117 39 86 
3 118 119 109 
3 118 120 119 
3 100 101 121 
3 122 102 100 
3 75 123 76 
3 69 124 111 
3 125 111 124 
3 24 110 112 
3 92 126 78 
3 80 127 105 
3 128 65 96 
3 56 114 86 
3 33 88 84 
3 129 130 131 
3 132 109 119 
3 119 120 133 
3 101 134 121 
3 100 121 122 
3 135 136 123 
3 136 124 123 
3 124 69 123 
3 69 76 123 
3 111 125 110 
3 117 137 138 
3 78 126 139 
3 140 139 126 
3 106 94 141 
3 142 107 116 
3 143 130 129 
3 131 130 144 
3 145 131 144 
3 97 146 118 
3 119 133 132 
3 147 134 132 
3 122 148 149 
3 150 75 102 
3 123 75 135 
3 78 151 62 
3 140 126 127 
3 139 140 152 
3 153 152 140 
3 132 133 147 
3 154 155 156 
3 154 156 157 
3 134 147 149 
3 134 149 148 
3 158 40 129 
3 75 150 135 
3 71 77 159 
3 72 159 77 
3 139 152 160 
3 140 127 153 
3 152 153 161 
3 84 88 162 
3 163 117 86 
3 133 157 147 
3 164 165 149 
3 149 165 150 
3 135 166 136 
3 124 136 167 
3 124 167 125 
3 72 138 159 
3 151 168 43 
3 152 161 169 
3 152 169 160 
3 170 169 161 
3 171 172 142 
3 157 156 147 
3 164 173 165 
3 135 150 166 
3 174 175 125 
3 110 175 112 
3 48 176 177 
3 128 171 178 
3 142 179 171 
3 180 181 182 
3 173 183 165 
3 183 150 165 
3 184 136 166 
3 136 185 167 
3 176 112 186 
3 177 176 187 
3 171 179 178 
3 179 169 178 
3 116 188 142 
3 163 86 114 
3 137 117 163 
3 181 180 145 
3 180 182 173 
3 183 173 182 
3 181 184 182 
3 166 150 184 
3 136 184 185 
3 104 49 189 
3 169 179 160 
3 190 87 191 
3 108 192 193 
3 180 173 164 
3 182 184 150 
3 182 150 183 
3 185 184 181 
3 71 159 194 
3 104 195 192 
3 142 188 196 
3 197 84 162 
3 191 198 190 
3 87 108 191 
3 199 185 181 
3 40 200 129 
3 201 174 185 
3 175 202 186 
3 176 186 203 
3 200 40 204 
3 205 192 195 
3 206 207 151 
3 108 193 208 
3 209 210 130 
3 211 143 129 
3 212 213 214 
3 142 196 215 
3 130 210 216 
3 204 194 200 
3 217 205 195 
3 218 207 219 
3 207 220 221 
3 206 151 222 
3 215 223 222 
3 196 188 224 
3 224 188 225 
3 191 226 198 
3 191 108 208 
3 227 228 210 
3 144 229 199 
3 186 230 203 
3 213 212 187 
3 137 231 138 
3 137 232 231 
3 221 220 233 
3 222 223 206 
3 114 221 234 
3 215 235 223 
3 236 225 188 
3 84 197 237 
3 114 234 163 
3 226 191 208 
3 210 228 216 
3 185 199 201 
3 217 195 238 
3 207 218 220 
3 221 239 234 
3 240 236 237 
3 163 241 137 
3 137 241 232 
3 228 227 242 
3 227 209 243 
3 129 200 211 
3 201 244 174 
3 187 203 245 
3 197 246 237 
3 163 234 241 
3 228 242 247 
3 211 209 143 
3 194 231 200 
3 231 232 200 
3 238 214 217 
3 218 248 220 
3 224 225 196 
3 241 249 232 
3 209 211 243 
3 250 229 144 
3 229 250 251 
3 252 245 203 
3 217 214 253 
3 254 255 256 
3 257 258 259 
3 258 255 259 
3 255 254 259 
3 220 248 233 
3 260 259 219 
3 260 219 261 
3 206 223 262 
3 247 242 263 
3 227 264 242 
3 263 242 264 
3 227 265 266 
3 216 228 267 
3 174 268 202 
3 256 269 218 
3 256 255 269 
3 270 269 255 
3 259 260 271 
3 259 271 257 
3 223 235 262 
3 198 226 272 
3 263 266 273 
3 247 263 274 
3 275 228 276 
3 216 267 250 
3 201 229 277 
3 202 268 278 
3 202 278 230 
3 214 213 279 
3 214 279 253 
3 280 281 269 
3 255 258 282 
3 257 282 258 
3 260 283 271 
3 261 283 260 
3 241 234 239 
3 273 266 284 
3 273 284 285 
3 263 273 286 
3 263 286 274 
3 247 274 287 
3 277 229 251 
3 201 277 244 
3 288 245 252 
3 269 270 280 
3 282 257 289 
3 282 289 290 
3 262 291 261 
3 239 221 233 
3 262 235 292 
3 293 292 235 
3 294 272 226 
3 295 249 241 
3 266 296 284 
3 273 285 286 
3 297 286 285 
3 298 296 265 
3 265 296 266 
3 274 286 287 
3 211 200 299 
3 300 281 280 
3 290 289 301 
3 302 301 289 
3 271 283 303 
3 239 233 304 
3 262 292 291 
3 239 295 241 
3 305 293 196 
3 225 236 306 
3 296 298 307 
3 296 307 284 
3 286 297 308 
3 286 308 287 
3 265 243 298 
3 276 287 309 
3 276 309 310 
3 276 310 275 
3 250 311 251 
3 187 245 213 
3 213 312 279 
3 281 300 313 
3 281 313 314 
3 315 316 317 
3 301 302 317 
3 289 303 302 
3 318 302 303 
3 197 319 246 
3 320 298 243 
3 309 287 308 
3 321 322 309 
3 310 309 322 
3 252 323 288 
3 324 316 315 
3 218 314 248 
3 304 233 248 
3 317 325 315 
3 302 318 325 
3 302 325 317 
3 303 283 318 
3 284 307 326 
3 285 327 328 
3 275 310 329 
3 200 330 299 
3 331 251 311 
3 277 251 332 
3 333 288 334 
3 335 333 334 
3 232 249 330 
3 232 330 200 
3 336 315 325 
3 337 325 318 
3 337 318 283 
3 326 338 339 
3 340 341 342 
3 327 340 328 
3 343 328 321 
3 322 329 310 
3 344 244 332 
3 268 344 345 
3 345 278 268 
3 230 278 346 
3 249 299 330 
3 347 291 348 
3 349 321 342 
3 350 351 349 
3 251 352 353 
3 288 323 334 
3 313 354 338 
3 338 355 313 
3 315 336 356 
3 315 356 324 
3 336 325 337 
3 349 342 350 
3 331 352 251 
3 251 353 332 
3 345 346 278 
3 230 346 323 
3 338 354 339 
3 295 304 248 
3 357 337 291 
3 337 283 291 
3 267 329 311 
3 354 358 339 
3 291 347 357 
3 359 360 361 
3 362 363 246 
3 331 311 329 
3 358 364 339 
3 365 339 364 
3 358 356 366 
3 358 366 364 
3 355 338 320 
3 356 337 357 
3 357 347 367 
3 361 360 368 
3 331 369 352 
3 355 249 295 
3 348 361 368 
3 370 306 371 
3 372 371 306 
3 363 373 306 
3 332 374 344 
3 348 368 375 
3 376 375 368 
3 377 293 305 
3 369 378 352 
3 346 345 379 
3 347 380 367 
3 368 381 376 
3 368 360 381 
3 382 383 384 
3 350 365 351 
3 351 365 385 
3 351 386 329 
3 369 387 378 
3 374 345 344 
3 367 366 357 
3 366 367 388 
3 367 380 388 
3 380 389 390 
3 391 390 389 
3 359 383 392 
3 351 385 386 
3 378 387 393 
3 394 353 395 
3 394 332 353 
3 345 396 379 
3 390 391 397 
3 390 397 388 
3 398 375 376 
3 381 392 399 
3 365 364 400 
3 386 385 401 
3 402 401 403 
3 379 396 371 
3 371 372 379 
3 379 372 373 
3 323 379 404 
3 391 405 397 
3 376 406 398 
3 399 392 407 
3 365 400 408 
3 402 403 409 
3 332 394 374 
3 379 373 404 
3 323 404 334 
3 410 375 402 
3 410 402 409 
3 391 410 405 
3 377 382 293 
3 411 401 408 
3 401 385 408 
3 412 413 402 
3 414 415 393 
3 415 416 393 
3 395 416 394 
3 410 409 417 
3 410 417 405 
3 415 418 399 
3 371 396 370 
3 417 411 408 
3 374 419 345 
3 419 396 345 
3 403 411 409 
3 411 417 409 
3 405 417 420 
3 414 421 418 
3 416 415 422 
3 423 422 383 
3 377 423 382 
3 370 396 419 
3 408 400 417 
3 419 374 394 
3 417 400 420 
3 418 415 414 
3 382 423 383 
3 377 419 423 
3 416 422 423 
3 420 400 364 
3 416 423 394 
3 312 253 279 
3 246 240 237 
3 202 175 174 
3 225 306 370 
3 54 95 55 
3 52 55 95 
3 57 49 58 
3 390 388 380 
3 399 418 406 
3 72 39 117 
3 365 408 385 
3 288 333 245 
3 161 153 141 
3 80 106 127 
3 277 332 244 
3 384 293 382 
3 44 39 23 
3 204 71 194 
3 36 32 77 
3 34 16 37 
3 63 81 64 
3 74 64 81 
3 66 98 67 
3 373 372 306 
3 177 49 48 
3 174 244 268 
3 2 9 12 
3 393 416 395 
3 344 268 244 
3 35 24 16 
3 337 356 336 
3 67 98 103 
3 102 103 98 
3 319 362 246 
3 239 304 295 
3 227 266 264 
3 263 264 266 
3 21 25 7 
3 320 338 298 
3 378 393 352 
3 399 407 415 
3 394 423 419 
3 125 185 174 
3 359 392 360 
3 381 360 392 
3 352 395 353 
3 96 424 128 
3 61 79 42 
3 227 243 265 
3 186 112 175 
3 20 36 18 
3 134 148 121 
3 122 121 148 
3 248 355 295 
3 276 228 247 
3 87 89 108 
3 249 355 320 
3 403 401 411 
3 306 236 240 
3 287 276 247 
3 57 9 25 
3 291 283 261 
3 162 88 190 
3 120 118 146 
3 34 68 35 
3 70 35 68 
3 56 27 115 
3 320 299 249 
3 97 91 145 
3 314 313 355 
3 280 425 300 
3 340 326 341 
3 339 341 326 
3 424 107 172 
3 142 172 107 
3 117 138 72 
3 73 50 51 
3 312 333 335 
3 145 91 131 
3 207 206 219 
3 389 380 348 
3 189 212 214 
3 348 375 389 
3 280 270 425 
3 317 425 270 
3 294 362 319 
3 180 164 155 
3 203 187 176 
3 376 381 406 
3 399 406 381 
3 285 284 327 
3 297 343 308 
3 50 47 51 
3 197 162 272 
3 207 221 168 
3 115 43 113 
3 88 33 89 
3 158 34 40 
3 6 13 23 
3 7 5 17 
3 386 401 331 
3 402 331 401 
3 349 351 322 
3 329 322 351 
3 85 188 116 
3 26 10 38 
3 32 19 39 
3 114 113 221 
3 291 292 348 
3 30 38 54 
3 41 48 25 
3 177 187 212 
3 366 388 426 
3 393 387 414 
3 421 414 387 
3 52 96 65 
3 144 130 250 
3 216 250 130 
3 210 209 227 
3 218 269 314 
3 281 314 269 
3 30 45 31 
3 5 8 17 
3 425 317 316 
3 120 146 133 
3 128 178 170 
3 169 170 178 
3 369 413 387 
3 421 387 413 
3 311 250 267 
3 71 204 40 
3 356 357 366 
3 349 322 321 
3 427 373 363 
3 108 59 192 
3 151 43 62 
3 20 14 6 
3 228 275 267 
3 329 267 275 
3 41 112 48 
3 176 48 112 
3 197 272 319 
3 294 319 272 
3 196 225 305 
3 370 305 225 
3 101 109 134 
3 132 134 109 
3 149 147 164 
3 156 164 147 
3 127 106 153 
3 141 153 106 
3 271 303 257 
3 289 257 303 
3 59 104 192 
3 129 131 158 
3 151 160 222 
3 179 222 160 
3 320 243 299 
3 419 377 370 
3 350 342 341 
3 254 219 259 
3 348 292 361 
3 384 361 292 
3 237 85 84 
3 207 168 151 
3 398 406 412 
3 418 412 406 
3 35 69 24 
3 110 24 69 
3 347 348 380 
3 377 305 370 
3 79 62 42 
3 343 321 308 
3 309 308 321 
3 248 314 355 
3 133 146 157 
3 154 157 146 
3 65 128 94 
3 54 83 95 
3 105 127 92 
3 126 92 127 
3 9 57 15 
3 88 87 190 
3 329 386 331 
3 203 230 252 
3 196 293 215 
3 235 215 293 
3 392 383 407 
3 229 201 199 
3 80 81 106 
3 82 106 81 
3 384 292 293 
3 230 323 252 
3 27 31 115 
3 43 115 31 
3 352 393 395 
3 246 363 240 
3 306 240 363 
3 389 375 391 
3 410 391 375 
3 151 78 160 
3 139 160 78 
3 145 180 154 
3 155 154 180 
3 298 338 307 
3 326 307 338 
3 85 38 29 
3 138 231 159 
3 194 159 231 
3 366 426 364 
3 284 326 327 
3 340 327 326 
3 43 168 113 
3 221 113 168 
3 185 125 167 
3 118 98 66 
3 66 97 118 
3 164 156 155 
3 145 144 181 
3 199 181 144 
3 1 0 3 
3 49 177 189 
3 212 189 177 
3 346 379 323 
3 230 186 202 
3 21 17 24 
3 211 299 243 
3 324 354 300 
3 313 300 354 
3 270 290 317 
3 301 317 290 
3 361 384 359 
3 383 359 384 
3 141 94 161 
3 407 383 415 
3 422 415 383 
3 94 128 161 
3 170 161 128 
3 209 130 143 
3 10 0 12 
3 175 110 125 
3 238 189 214 
3 189 238 104 
3 195 104 238 
3 328 340 321 
3 342 321 340 
3 12 15 10 
3 28 10 15 
3 218 219 256 
3 254 256 219 
3 188 85 236 
3 237 236 85 
3 331 402 369 
3 413 369 402 
3 324 356 354 
3 358 354 356 
3 375 398 402 
3 412 402 398 
3 425 316 300 
3 324 300 316 
3 179 142 222 
3 215 222 142 
3 341 339 350 
3 365 350 339 
3 245 333 213 
3 312 213 333 
3 98 118 99 
3 109 99 118 
3 102 122 150 
3 149 150 122 
3 96 95 424 
3 107 424 95 
3 128 424 171 
3 172 171 424 
3 421 413 418 
3 412 418 413 
3 16 8 37 
3 18 37 8 
3 219 206 261 
3 262 261 206 
3 158 131 90 
3 91 90 131 
3 34 158 68 
3 90 68 158 
3 90 66 68 
3 145 154 97 
3 146 97 154 
3 190 198 162 
3 272 162 198 
3 426 388 397 
3 420 364 426 
3 405 420 426 
3 426 397 405 
3 328 343 297 
3 297 285 328 
3 255 282 270 
3 290 270 282 
3 404 373 427 
